<svg width="18" height="18" fill="none" xmlns="http://www.w3.org/2000/svg"><path fill-rule="evenodd" clip-rule="evenodd" d="M11.072.525c.355 0 .642.288.642.643v2.546a.643.643 0 1 1-1.285 0V1.168c0-.355.287-.643.643-.643Zm4.311 3a.643.643 0 1 0-.909-.908l-1.286 1.285a.643.643 0 1 0 .91.91l1.285-1.286ZM8.72 10.19a.643.643 0 1 0-.91-.909L.24 16.85a.643.643 0 1 0 .91.91l7.57-7.57Zm2.994.597a.643.643 0 1 0-1.285 0v1.882a.643.643 0 0 0 1.285 0v-1.882Zm1.929-3.857c0-.356.287-.643.642-.643h2.572a.643.643 0 0 1 0 1.285h-2.572a.643.643 0 0 1-.642-.643Zm-8.358-.643a.643.643 0 0 0 0 1.285h2.572a.643.643 0 0 0 0-1.285H5.285Zm7.903 2.76a.643.643 0 0 1 .91 0l1.285 1.285a.643.643 0 1 1-.909.91l-1.286-1.287a.643.643 0 0 1 0-.909Zm-5.52-6.43a.643.643 0 1 0-.908.91l1.285 1.286a.643.643 0 0 0 .91-.91L7.668 2.617Z" fill="#000"/></svg>